<?xml version="1.0" encoding="utf-8"?>
<!-- Generator: Adobe Illustrator 18.1.1, SVG Export Plug-In . SVG Version: 6.00 Build 0)  -->
<svg version="1.1" id="Laag_1" xmlns="http://www.w3.org/2000/svg" xmlns:xlink="http://www.w3.org/1999/xlink" x="0px" y="0px"
	 width="200px" height="220px" viewBox="0 0 200 220" enable-background="new 0 0 200 220" xml:space="preserve">
<g>
	<path fill="#2BB673" d="M148.7,325.6H51.3c-5.3,0-1.1-5.7-1.1-11.1l-8.6-113.6c0-5.3,4.4-9.7,9.7-9.7h97.4c5.3,0,9.7,4.4,9.7,9.7
		l-7.5,113.2C150.9,319.5,154.1,325.6,148.7,325.6z"/>
	<path fill="#2BB673" d="M50.3,178.1l-7.6,3.2c0,0-16.7-1.1-23.7,2.7c-7,3.8-8.3,19.9-8.7,24c-0.5,4-0.9,10.5-2.8,12.1
		s2.3,2.8,4.7,2.8c0,0,28.1,0.1,33.7-1.5L50.3,178.1z"/>
	<path fill="#2BB673" d="M157.9,189.7c0,0,6.2-4.8,4.2-11.4c-2.1-6.6-10.2-14.3-21.4-11.7c-11.2,2.6-36.9-1.6-36.9-1.6l-4.9,19.6
		v0.2L95.2,165c0,0-23.8,6.7-39,1c-11-4.1-18.3,5.7-20.4,12.4s3.7,11.7,3.7,11.7s-4.2-0.3-4.2,2.4c0,2.6,0.8,6.4,8.1,6.1
		c2-0.1,7-1.5,13.1-0.1c8.2,1.9,14,4.6,19.6,4.6c13.3,0,22.8-4.4,22.8-4.4v-0.1c1.3,0,12,4.6,23.7,4.6c6.7,0,11.6,0,19.1-2.1
		c5.6-1.6,10.6-2.5,12.5-2.5c7.3,0.3,8.1-3.5,8.1-6.1C162.5,189.7,157.9,189.7,157.9,189.7z"/>
	<path fill="#009444" d="M154.6,172.8c-2.8-3.5-10.9-3-17.4,0c-6.4,3-26.5,5.8-26.5,5.8H99.4h-0.9H87.1c0,0-20.1-2.8-26.5-5.8
		c-6.4-3-14.5-3.5-17.4,0s2.8,7.4,6.9,7.8s9.9-0.4,14.7,0c4.7,0.4,17.9,9.4,20.4,12.1c2.4,2.5,12.3,7.2,13.7,7.8l0,0.1
		c0,0,0,0,0.1,0c0,0,0.1,0,0.1,0l0-0.1c1.4-0.6,11.3-5.3,13.7-7.8c2.5-2.7,15.7-11.7,20.4-12.1c4.7-0.4,10.6,0.4,14.7,0
		S157.4,176.3,154.6,172.8z"/>
	<path fill="#FFDCCC" d="M116.3,187c0,0-8.9,2.8-17,2.8S82.3,187,82.3,187v-26.2h34V187z"/>
	<path fill="#FFC7B4" d="M170.3,69.8c-2.9-1.1-6.9-1.6-7.8,1.8c-0.2,0.6-0.5,1.4,0.1,2.6c2.3,4.7,3.6,10.5,4,12.9
		c0.4,2.4-0.7,7.5-1.4,10.6c-0.5,2-0.8,6.9-0.5,10c3.4-1.7,5.8-5.4,5.8-9.8c0-1.8-0.4-3.4-1.1-4.9c1.1-1.5,2.2-3.3,3-5.2
		C176,79.6,175,71.6,170.3,69.8z"/>
	<path fill="#FFC7B4" d="M29.5,68.9c2.9-1.1,6.9-1.6,7.8,1.8c0.2,0.6,0.5,1.4-0.1,2.6c-2.3,4.7-3.6,10.5-4,12.9
		c-0.4,2.4,0.7,7.5,1.4,10.6c0.5,2,0.8,6.9,0.5,10c-3.4-1.7-5.8-5.4-5.8-9.8c0-1.8,0.4-3.4,1.1-4.9c-1.1-1.5-2.2-3.3-3-5.2
		C23.8,78.7,24.8,70.7,29.5,68.9z"/>
	<path fill="#FFC7B4" d="M176.4,72.9"/>
	<path fill="#FFC7B4" d="M177.7,85.1"/>
	<path fill="#FFDCCC" d="M167.4,99.5c0-41.6-30.2-75.4-67.6-75.8v0c0,0-0.1,0-0.1,0c-0.1,0-0.2,0-0.3,0c-0.1,0-0.2,0-0.3,0
		c0,0-0.1,0-0.1,0v0c-37.4,0.4-67.6,34.2-67.6,75.8s30.2,75.4,67.6,75.8v0c0,0,0.1,0,0.1,0c0.1,0,0.2,0,0.3,0c0.1,0,0.2,0,0.3,0
		c0,0,0.1,0,0.1,0v0C137.2,174.8,167.4,141.1,167.4,99.5z"/>
	<path opacity="7.000000e-002" fill="#231F20" d="M167.4,97.2c-0.3-13.4-4.5-26.5-9-36.9l-1,2c0,0,4.1,9.8,4.6,17.9
		c0,0,1.6,16.2,0,28.5c-0.9,7.4-5.3,24.9-16,38.4c-10.9,13.8-24.6,20.4-39.6,24.1c-4.9,1.2-24.9,1-45.7-9.8
		c10.9,8.7,24.1,13.9,38.3,14v0c0,0,0.1,0,0.1,0c0.1,0,0.2,0,0.3,0c0.1,0,0.2,0,0.3,0c0,0,0.1,0,0.1,0v0
		C137.2,174.8,168.3,140,167.4,97.2z"/>
	<path opacity="9.000000e-002" fill="#231F20" d="M35.6,68.2c0,0,1.4-13.3,9.3-22.7c5.5-6.6,14-11.2,18.6-15.5
		c5.1-4.8,14.6-13.2,26.9-15.6S121.9,19,129.3,30c0,0,8.9,0,15.6,4.9c4.9,3.6,14,15.6,18.2,31.7c0,0,0,0-4.7-1.8
		c0,0-2.1-11-9.2-16.8c-6.5-5.3-13.9-6.4-23.2-7.4c0,0-10.4-6.9-18.1-7.5c-11.6-0.9-19.6,10.7-28.2,10.7c-16.4,0-25.4-0.9-35.5,13.8
		C40.6,62.8,35.6,68.2,35.6,68.2z"/>
	<path fill="#45B6EF" d="M126,83.6c0,3.9-3.4,7.1-7.6,7.1c-4.2,0-7.6-3.2-7.6-7.1s3.4-5.3,7.6-5.3C122.6,78.3,126,79.7,126,83.6z"/>
	<g>
		<path fill="#CAB5A3" d="M107.9,117c0,0-0.2,0.2-0.6,0.6c-0.2,0.2-0.4,0.4-0.8,0.6c-0.3,0.2-0.7,0.5-1.1,0.6
			c-0.4,0.2-0.9,0.4-1.4,0.5c-0.5,0.1-1,0.3-1.6,0.3c-0.6,0.1-1.1,0.1-1.7,0.1c-0.6,0-1.2,0-1.8,0c-2.4-0.2-4.6-0.8-6.2-1.5
			c-0.8-0.4-1.5-0.7-1.9-1c-0.4-0.3-0.7-0.5-0.7-0.5s0.3-0.1,0.8-0.1c0.5,0,1.2-0.1,2.1-0.1c0.9,0,1.8,0,2.9,0c1,0,2.1,0.1,3.2,0.2
			c1.1,0.1,2.2,0.2,3.2,0.2c0.5,0.1,1,0,1.4,0.1c0.5,0,0.9,0,1.3,0c0.4,0,0.7,0,1.1,0c0.3,0,0.7,0,0.9-0.1
			C107.6,117,107.9,117,107.9,117z"/>
	</g>
	<g>
		<path fill="#58595B" d="M114.9,142.4c0,0-0.3,0.4-1,1c-0.7,0.6-1.7,1.4-2.9,2.2c-0.7,0.4-1.3,0.8-2.1,1.2
			c-0.8,0.4-1.6,0.8-2.5,1.1c-0.4,0.2-0.9,0.3-1.4,0.5c-0.5,0.1-0.9,0.3-1.4,0.4c-1,0.2-2,0.5-3,0.6c-1,0.2-2,0.2-3.1,0.3
			c-0.5,0-1,0-1.5,0c-0.5,0-1,0-1.5-0.1c-0.5-0.1-1-0.1-1.4-0.2c-0.5-0.1-0.9-0.2-1.3-0.3c-0.9-0.2-1.6-0.5-2.4-0.8
			c-0.7-0.3-1.3-0.7-1.9-1c-0.5-0.3-1-0.6-1.3-0.9c-0.7-0.6-1.1-0.9-1.1-0.9s0.5,0.1,1.3,0.4c0.4,0.1,0.9,0.3,1.5,0.4
			c0.6,0.1,1.2,0.3,1.9,0.4c0.7,0.1,1.4,0.2,2.3,0.3c0.4,0,0.8,0.1,1.2,0.1c0.4,0,0.8,0,1.3,0c0.9,0,1.8-0.1,2.7-0.1
			c0.9-0.1,1.8-0.2,2.8-0.3c0.9-0.1,1.8-0.3,2.8-0.5c0.9-0.2,1.8-0.4,2.7-0.6c0.9-0.2,1.7-0.4,2.5-0.7c0.8-0.2,1.5-0.5,2.2-0.7
			c0.7-0.3,1.3-0.4,1.9-0.6c0.6-0.2,1.1-0.4,1.5-0.5C114.4,142.6,114.9,142.4,114.9,142.4z"/>
	</g>
	<path fill="#45B6EF" d="M87.3,83.6c0,3.9-3.4,7.1-7.6,7.1s-7.6-3.2-7.6-7.1s3.4-5.3,7.6-5.3S87.3,79.7,87.3,83.6z"/>
	<path fill="#3C2415" d="M72.1,14.8C83.7,10,109.4,1.6,129.3,30c14.4-9.3,28.9,5.3,30.5,16.6c1.2,8.3,5.1,15.5,4.4,31.3
		c0,0-2-10.4-5.9-13.1c0,0-7.2-18.7-15.7-22.1c-8.5-3.4-10.4-3.3-16.7-2.1c0,0-9.4-10.5-21-10.5s-16.7,5.4-25.3,6.3
		c-11.4,1.2-31.5,10.2-34.3,19.2c-2.3,7.5-11,16.5-11,16.5s1.2-10.3,3.4-22.2c1.8-10.1,6.6-12.6,12.4-15.1
		C50.1,34.7,59.7,19.9,72.1,14.8z"/>
	<path stroke="#000000" stroke-width="2" stroke-miterlimit="10" d="M91.6,82.2c-1.6,7.5-7.6,19.8-9,21.2c-1.4,1.4-9.4,4.4-15.7,4.9
		c-10.1,0.8-14.1-0.1-18.4-1.5c-4.3-1.4-6.2-5.7-8.5-12.4c-2.8-8.3-2.3-17.9-2.3-17.9c0.1-2.1,1.4-3.7,3-4.2
		c6.9-1.7,14.7-2.2,22.6-2.9c10.5-0.9,23.5,1.5,25.1,2.1S93.3,74.7,91.6,82.2z M149.6,106.9c-4.3,1.4-8.2,2.3-18.4,1.5
		c-6.3-0.5-14.3-3.5-15.7-4.9c-1.4-1.4-7.4-13.7-9-21.2c-1.6-7.5,1.6-9.9,3.2-10.5c1.6-0.6,14.5-3,25.1-2.1
		c7.9,0.7,15.7,1.2,22.6,2.9c1.6,0.4,3,2,3,4.2c0,0,0.5,9.6-2.3,17.9C155.8,101.2,153.9,105.5,149.6,106.9z M162.8,84
		c0.6-4.8,2.3-6.5,3.2-7.1c0.4-0.2,0.6-0.6,0.6-1.1v-4.7c0-0.7-0.6-1.3-1.3-1.3c-0.9,0-2.5-0.1-4.8-0.2c-8.1-0.3-22.7-3.4-32.3-3
		c-9,0.4-27.2,2.7-29.2,3c-0.1,0-0.2,0-0.3,0c-1.9-0.3-20.1-2.6-29.2-3c-9.5-0.4-24.2,2.7-32.3,3c-1.4,0.1-2.5,0.1-3.4,0.1
		c-1.5,0.1-2.7,1.3-2.7,2.8v3.3c0,0.4,0.2,0.9,0.6,1.1c0.9,0.6,2.7,2.3,3.2,7.1c0.8,6.7,4.9,16.6,4.9,16.6s2.8,7.7,12,8.9
		s18.7-0.4,23.7-1.2c4.4-0.7,7.8-2.9,8.7-3.5c0.1-0.1,0.3-0.2,0.4-0.4c4-6.1,9-22.3,9.8-25.2c0.8-2.8,4.4-2.7,4.4-2.7
		s3.6-0.1,4.4,2.7c0.8,2.8,5.8,19.1,9.8,25.2c0.1,0.1,0.2,0.3,0.4,0.4c0.9,0.6,4.3,2.8,8.7,3.5c5.1,0.8,14.6,2.4,23.7,1.2
		c9.1-1.2,12-8.9,12-8.9S162,90.7,162.8,84z"/>
	<g>
		<path fill="#594A42" d="M130.3,64.2c0,0-0.5,0-1.3-0.1c-0.8-0.1-1.9-0.2-3.2-0.4c-1.2-0.2-2.6-0.4-4.2-0.7
			c-0.7-0.1-1.5-0.2-2.1-0.3c-0.3,0-0.7,0-1,0c-0.2,0-0.3,0-0.4,0l-0.5,0l-1.3,0.1c-0.4,0-0.9,0-1.3,0c-0.9,0-1.7,0-2.5-0.1
			c-1.6-0.1-3.1-0.4-4.4-0.6c-1.3-0.3-2.4-0.6-3.1-0.9c-0.8-0.3-1.2-0.5-1.2-0.5s0.1-0.1,0.3-0.1c0.2-0.1,0.5-0.2,0.9-0.4
			c0.7-0.3,1.8-0.7,3.1-1c1.3-0.3,2.7-0.6,4.3-0.9c0.8-0.1,1.6-0.2,2.4-0.4c0.8-0.1,1.6-0.2,2.4-0.3l0.3,0l0.4,0c0.3,0,0.6,0,0.8,0
			c0.6,0,1.1,0.1,1.5,0.2c1,0.2,1.8,0.5,2.7,0.8c1.6,0.7,3,1.5,4.1,2.3c1.1,0.8,1.9,1.6,2.5,2.2C130,63.8,130.3,64.2,130.3,64.2z"/>
	</g>
	<path opacity="7.000000e-002" stroke="#000000" stroke-width="2" stroke-miterlimit="10" d="M93.3,83.8c-1.6,7.5-7.6,19.8-9,21.2
		c-1.4,1.4-9.4,4.4-15.7,4.9c-10.1,0.8-14.1-0.1-18.4-1.5c-4.3-1.4-6.2-5.7-8.5-12.4c-2.8-8.3-2.3-17.9-2.3-17.9
		c0.1-2.1,1.4-3.7,3-4.2c6.9-1.7,14.7-2.2,22.6-2.9c10.5-0.9,23.5,1.5,25.1,2.1C91.6,73.9,94.9,76.3,93.3,83.8z M151.2,108.5
		c-4.3,1.4-8.2,2.3-18.4,1.5c-6.3-0.5-14.3-3.5-15.7-4.9c-1.4-1.4-7.4-13.7-9-21.2c-1.6-7.5,1.6-9.9,3.2-10.5
		c1.6-0.6,14.5-3,25.1-2.1c7.9,0.7,15.7,1.2,22.6,2.9c1.6,0.4,3,2,3,4.2c0,0,0.5,9.6-2.3,17.9C157.4,102.8,155.5,107.1,151.2,108.5z
		 M167.1,71.4c-0.9,0-2.5-0.1-4.8-0.2c-8.1-0.3-22.7-3.4-32.3-3c-9,0.4-27.2,2.7-29.2,3c-0.1,0-0.2,0-0.3,0
		c-1.9-0.3-20.1-2.6-29.2-3c-9.5-0.4-24.2,2.7-32.3,3c-1.4,0.1-2.5,0.1-3.4,0.1c-1.5,0.1-2.7,1.3-2.7,2.8v3.3c0,0.4,0.2,0.9,0.6,1.1
		c0.9,0.6,2.7,2.3,3.2,7.1c0.8,6.7,4.9,16.6,4.9,16.6s2.8,7.7,12,8.9s18.7-0.4,23.7-1.2c4.4-0.7,7.8-2.9,8.7-3.5
		c0.1-0.1,0.3-0.2,0.4-0.4c4-6.1,9-22.3,9.8-25.2c0.8-2.8,4.4-2.7,4.4-2.7s3.6-0.1,4.4,2.7c0.8,2.8,5.8,19.1,9.8,25.2
		c0.1,0.1,0.2,0.3,0.4,0.4c0.9,0.6,4.3,2.8,8.7,3.5c5.1,0.8,14.6,2.4,23.7,1.2s11.5-7.5,12-8.9c1.8-5,1.4-10.7,2.8-17.1"/>
	<g>
		<path fill="#594A42" d="M68.7,64.2c0,0,0.3-0.4,0.8-1c0.5-0.6,1.4-1.4,2.5-2.2c1.1-0.8,2.4-1.6,4.1-2.3c0.8-0.3,1.7-0.6,2.7-0.8
			c0.5-0.1,1-0.2,1.5-0.2c0.3,0,0.6,0,0.8,0l0.4,0l0.3,0c0.9,0.1,1.6,0.2,2.4,0.3c0.8,0.1,1.6,0.2,2.4,0.4c1.6,0.3,3,0.6,4.3,0.9
			c1.3,0.3,2.3,0.7,3.1,1c0.4,0.1,0.7,0.3,0.9,0.4c0.2,0.1,0.3,0.1,0.3,0.1s-0.4,0.2-1.2,0.5c-0.8,0.3-1.8,0.6-3.1,0.9
			c-1.3,0.3-2.8,0.5-4.4,0.6C85.6,63,84.8,63,83.9,63c-0.4,0-0.9,0-1.3,0l-1.3-0.1l-0.5,0c-0.1,0-0.3,0-0.4,0c-0.3,0-0.6,0-1,0
			c-0.7,0.1-1.4,0.2-2.1,0.3c-1.5,0.2-2.9,0.5-4.2,0.7c-1.3,0.2-2.4,0.3-3.2,0.4C69.1,64.2,68.7,64.2,68.7,64.2z"/>
	</g>
	<ellipse fill="#FFFFFF" cx="114" cy="81.6" rx="1.6" ry="1.4"/>
	<ellipse fill="#FFFFFF" cx="75.3" cy="81.6" rx="1.6" ry="1.4"/>
	<path opacity="0.2" fill="#C2B59B" d="M126.6,37.6c0,0-3.7-12-20.1-18.8C90.2,12.1,79.6,16,70.6,18c-9.9,2.1-20.5,16.7-20.5,16.7
		s8.9-9.6,16.4-10.9c8.8-1.6,10.1,2.9,24.9-0.4c12.4-2.8,22.3,3.4,27,6.2C123,32.4,126.6,37.6,126.6,37.6z"/>
	<path opacity="0.2" fill="#C2B59B" d="M129.3,34.1c0,0,10.4-4.4,18.2,0.9c9.3,6.3,9.3,6.9,9.8,12.4c0.6,6.8,4.9,16.2,4.9,16.2
		s-7.4-9.3-8.4-15.6c-0.6-3.8-1.3-6.5-6.3-9.9c-4-2.7-8.3-4-11.3-4.5S129.3,34.1,129.3,34.1z"/>
	<path fill="#2BB673" d="M150.9,180.6l7.6,3.2c0,0,16.7-1.1,23.7,2.7c7,3.8,8.3,19.9,8.7,24s0.9,10.5,2.8,12.1
		c1.9,1.6-2.3,2.8-4.7,2.8c0,0-28.1,0.1-33.7-1.5L150.9,180.6z"/>
	<path fill="#009444" d="M162,184c0,0-11.2,5.3-21.3,6.9c-10.1,1.6-14.7,7.6-14.7,7.6s6.9-2.8,15.8-3.6c9-0.8,16.1-5.2,16.1-5.2
		S160.9,187.9,162,184z"/>
	<path fill="#009444" d="M35.4,182.6c0,0,4,4.2,11.9,4.2c6.9,0,17.8,7.7,17.8,7.7s-11.3-2.5-18.2-3.3c-6.9-0.8-8-1.3-8-1.3
		S35.4,185.8,35.4,182.6z"/>
	<path fill="#FFFFFF" d="M87.7,199.4c-0.1-1.1-1.4-1.9-3-1.9c-1.6,0-2.9,0.8-3,1.9h0v1.6v33.3v1.6h0c0.1,1.1,1.4,1.9,3,1.9
		c1.6,0,2.9-0.8,3-1.9h0v-1.6v-33.3L87.7,199.4L87.7,199.4z"/>
	<path fill="#FFFFFF" d="M115.4,199.9c-0.1-1.4-1.4-2.4-3-2.4c-1.6,0-2.9,1.1-3,2.4h0v2.1v42.4v2.1h0c0.1,1.4,1.4,2.4,3,2.4
		c1.6,0,2.9-1.1,3-2.4h0v-2.1v-42.4L115.4,199.9L115.4,199.9z"/>
</g>
<g>
</g>
<g>
</g>
<g>
</g>
<g>
</g>
<g>
</g>
<g>
</g>
</svg>
