<?xml version="1.0" encoding="utf-8"?>
<!-- Generator: Adobe Illustrator 18.1.1, SVG Export Plug-In . SVG Version: 6.00 Build 0)  -->
<svg version="1.1" id="Laag_1" xmlns="http://www.w3.org/2000/svg" xmlns:xlink="http://www.w3.org/1999/xlink" x="0px" y="0px"
	 width="200px" height="220px" viewBox="0 0 200 220" enable-background="new 0 0 200 220" xml:space="preserve">
<path fill="#936221" d="M78.7,113.6c4.7,12.7,15.6,32.6,13.1,45c-2.5,12.4-2.1,31.5-2.1,31.5c-1,0.4-16.7,2.7-28.6,4.8
	c-9,1.6-17.8,8.2-17.8,8.2s0.9-17.5-0.5-23.8c-2.3-10.5,1-14.8-1.6-23.6c-3.1-10.3-6.7-16.3-7.3-22c-1.3-10.9,3.8-28,3.4-41.2
	c-0.3-11.2,16.3-6.2,16.3-6.2L78.7,113.6z"/>
<path fill="#936221" d="M122,119.8c-4.6,12.7-14.1,32.4-12.7,45c1.4,12.5,1,25.9,1,25.9c3.1,0.8,31.6,2.6,39.7,6.1
	c7.2,3.1,9.3,10.9,9.3,10.9s-3.8-15.8-2.5-22.1c2.3-10.5-1-14.8,1.6-23.6c3-10.3,6.2-10.4,6.8-16c1.2-10.9-1-33.3-5.2-43.7
	c-4.2-10.5-13.7-9.6-13.7-9.6L122,119.8z"/>
<polygon fill="#FFDCCC" points="67.9,187.4 97.6,182.5 132,186.9 135,204.9 110.3,246.8 79.3,243.3 63.8,192 "/>
<path opacity="7.000000e-002" fill="#231F20" d="M89.7,192.1c0,0,4,24.3,24.6,34.8c5.3,2.7,19.1-14.2,19.1-14.2l2.9-25.3l-34.6-4.8
	L89.7,192.1z"/>
<path fill="#FFC7B4" d="M164.1,74c-2.2-1.1-5.3-1.7-6.2,0.9c-0.2,0.5-0.5,1.1-0.1,2c1.5,3.8,2.2,8.5,2.4,10.4s-1,5.8-1.7,8.2
	c-0.5,1.5-1,5.3-1,7.8c2.8-1.1,4.9-3.9,5.2-7.3c0.1-1.4-0.1-2.7-0.5-3.9c1-1.1,1.9-2.4,2.7-3.9C167.9,82,167.7,75.7,164.1,74z"/>
<path fill="#FFDCCC" d="M160.6,89.9c0,45.7-27.1,82.7-60.6,82.7s-60.6-37-60.6-82.7S66.5,13.5,100,13.5S160.6,44.2,160.6,89.9z"/>
<polygon fill="#726658" points="76.5,71.7 70.5,69.2 74.5,73.2 69.3,72.3 73.4,74.8 68.8,75.6 73.2,76.2 "/>
<polygon fill="#726658" points="123.8,72.7 129.7,70.2 125.8,74.2 131,73.3 126.8,75.8 131.4,76.6 127,77.2 "/>
<path fill="#FFDCCC" d="M110.3,195.2c0,0-3.1,4.1-10.3,4.1c-7.9,0-10.3-4.1-10.3-4.1v-26.4h20.7V195.2z"/>
<g opacity="7.000000e-002">
	<defs>
		<path id="SVGID_1_" opacity="7.000000e-002" d="M159.3,72.9l-5.5-8.4c0,0,3.5,14.8,3.3,22.6c-0.2,7.8-1.6,28.4-5.6,38.3
			c-4,9.9-16.7,28.2-21,31.4c-4.2,3.2-14,9.9-22.5,10.8c-8.5,0.9-24,0.3-40.1-7.4c9.3,8,20.3,12.6,32.1,12.6
			c33.5,0,60.6-37,60.6-82.7C160.6,79.6,160.1,77.8,159.3,72.9z"/>
	</defs>
	<use xlink:href="#SVGID_1_"  overflow="visible" fill="#231F20"/>
	<clipPath id="SVGID_2_">
		<use xlink:href="#SVGID_1_"  overflow="visible"/>
	</clipPath>
	<path clip-path="url(#SVGID_2_)" fill="#231F20" d="M160.6,89.9c0,45.7-27.1,82.7-60.6,82.7s-60.6-37-60.6-82.7S66.5,13.5,100,13.5
		S160.6,44.2,160.6,89.9z"/>
</g>
<path fill="#54600A" d="M128.5,77.8c0,4.7-4.1,8.5-9.1,8.5c-5,0-9.1-3.8-9.1-8.5s4.1-6.5,9.1-6.5C124.4,71.2,128.5,73.1,128.5,77.8z
	"/>
<g>
	<path fill="#CAB5A3" d="M91.4,109.7c0,0,0.3-0.1,0.7-0.2c0.5-0.1,1.1-0.2,1.9-0.3c0.8-0.1,1.7-0.1,2.6-0.2c0.9,0,1.9-0.1,2.9-0.1
		c1,0,1.9,0,2.8-0.1c0.5,0,0.9-0.1,1.3-0.1c0.4,0,0.8-0.1,1.1-0.1c0.4,0,0.7-0.1,1-0.1c0.3,0,0.6-0.1,0.8-0.2
		c0.4-0.1,0.7-0.2,0.7-0.2s-0.1,0.2-0.4,0.7c-0.1,0.2-0.3,0.5-0.6,0.7c-0.3,0.2-0.5,0.5-0.9,0.8c-0.4,0.2-0.8,0.5-1.2,0.7
		c-0.4,0.2-0.9,0.4-1.4,0.5c-0.5,0.1-1,0.3-1.6,0.3c-0.5,0.1-1.1,0.1-1.6,0.1c-2.2,0-4.3-0.4-5.8-1c-0.7-0.3-1.4-0.6-1.8-0.9
		C91.6,109.9,91.4,109.7,91.4,109.7z"/>
</g>
<g>
	<path fill="#AA3A00" d="M116.4,137.4c0,0-0.1,0.1-0.2,0.4c-0.1,0.2-0.3,0.6-0.7,1c-0.3,0.4-0.8,0.9-1.3,1.4c-0.6,0.5-1.2,1-2,1.5
		c-0.8,0.5-1.7,0.9-2.6,1.3c-1,0.4-2,0.8-3.1,1.1c-2.2,0.6-4.5,1-6.9,1.1c-1.2,0-2.4,0.1-3.5,0c-1.2-0.1-2.3-0.2-3.4-0.4
		c-2.2-0.4-4.2-1.1-5.9-1.9c-0.8-0.4-1.5-0.8-2.2-1.3c-0.6-0.4-1.1-0.9-1.5-1.3c-0.4-0.4-0.6-0.7-0.8-1c-0.1-0.2-0.2-0.4-0.2-0.4
		s0.1,0.1,0.4,0.1c0.2,0.1,0.6,0.2,1.1,0.4c1,0.2,2.3,0.5,3.9,0.6c0.8,0.1,1.7,0.1,2.6,0.2c0.9,0,1.9,0.1,2.9,0.1c2,0,4.1,0,6.3-0.1
		c1.1,0,2.1-0.1,3.2-0.2c1-0.1,2.1-0.2,3.1-0.3c2-0.2,3.8-0.4,5.4-0.8c0.8-0.2,1.5-0.3,2.2-0.5c0.6-0.2,1.2-0.3,1.7-0.5
		c0.2-0.1,0.4-0.2,0.6-0.2c0.2-0.1,0.3-0.2,0.5-0.2C116.3,137.4,116.4,137.4,116.4,137.4z"/>
</g>
<path fill="#54600A" d="M89.7,77.3c0,4.7-4.1,8.5-9.1,8.5s-9.1-3.8-9.1-8.5s4.1-6.5,9.1-6.5S89.7,72.6,89.7,77.3z"/>
<g>
	<path fill="#726658" d="M133.9,70c0,0-0.4-0.1-1.1-0.4c-0.7-0.3-1.7-0.6-2.8-1.1c-1.1-0.5-2.4-1-3.7-1.5c-0.6-0.3-1.3-0.5-1.9-0.6
		c-0.3-0.1-0.6-0.1-0.9-0.2c-0.1,0-0.3,0-0.4,0l-0.5,0c-0.8,0-1.7,0-2.5-0.1c-0.8-0.1-1.6-0.2-2.4-0.3c-1.5-0.3-2.9-0.6-4.1-1
		c-1.2-0.4-2.2-0.8-2.8-1c-0.7-0.3-1.1-0.5-1.1-0.5s0.4-0.1,1.1-0.3c0.7-0.1,1.8-0.3,3-0.4c1.2-0.1,2.7-0.2,4.1-0.2
		c0.7,0,1.5,0,2.3,0c0.8,0,1.6,0,2.3,0l0.3,0l0.4,0c0.3,0,0.5,0.1,0.8,0.1c0.5,0.1,1,0.2,1.4,0.4c0.9,0.3,1.7,0.7,2.4,1.2
		c1.4,0.9,2.5,1.9,3.4,2.8c0.9,0.9,1.5,1.8,1.9,2.4C133.7,69.6,133.9,70,133.9,70z"/>
</g>
<g>
	<path fill="#726658" d="M65.1,68.1c0,0,0.3-0.4,0.8-1c0.5-0.6,1.4-1.4,2.4-2.3c1.1-0.9,2.4-1.8,4-2.5c0.8-0.4,1.7-0.7,2.6-1
		c0.5-0.1,1-0.2,1.5-0.3c0.3,0,0.6,0,0.8,0l0.4,0l0.3,0c0.9,0.1,1.7,0.1,2.6,0.2c0.8,0.1,1.7,0.1,2.5,0.2c1.6,0.1,3.2,0.3,4.5,0.5
		c1.3,0.2,2.4,0.5,3.2,0.7c0.8,0.2,1.2,0.4,1.2,0.4s-0.4,0.2-1.2,0.4c-0.8,0.2-1.9,0.5-3.2,0.8c-1.3,0.3-2.9,0.5-4.5,0.7
		C82.4,65,81.5,65,80.6,65c-0.9,0-1.8,0-2.7-0.1l-0.5,0c-0.2,0-0.3,0-0.5,0c-0.3,0-0.7,0.1-1,0.1c-0.7,0.1-1.5,0.3-2.2,0.5
		c-1.5,0.4-2.9,0.9-4.2,1.3c-1.3,0.4-2.3,0.7-3.1,0.9C65.6,68,65.1,68.1,65.1,68.1z"/>
</g>
<ellipse fill="#FFFFFF" cx="114.9" cy="74.6" rx="1.9" ry="1.7"/>
<ellipse fill="#FFFFFF" cx="76.2" cy="74.1" rx="1.9" ry="1.7"/>
<path opacity="0.17" fill="#231F20" d="M167.8,68.2c-2.2-18.3-10.9-28.7-15.9-35.4c-7.8-10.4-15.4-12.5-21.6-12.8
	c-1.7-0.1-6.1,0.4-8,0.7c-2.2-2-8.1-6.9-17-8.6c-11.5-2.3-36.7,4.6-45.8,11.9c-5,4-12.2,11.9-13.7,21.2C44.5,52.3,41,57,39.4,62.3
	l4,7.7c20.1-7.3,27.3-9.5,40.7-16.8c9-4.9,17.5-11.8,24.9-17.5c10.1-1.7,3.8,3.9,19.5,6.5c7,1.2,10.8,9,13.7,18
	c1.9,5.9-0.9,10.3,1,14.9c4.5,11.2,9.7,37.7,9.7,46.4l18.1-27.6C169,85.4,168.8,76.7,167.8,68.2z"/>
<path fill="#936221" d="M152,132.5c2.6-8.4-0.9-22.3-0.9-36.7c0-8.6-7-18.8-7.9-23.5c-0.9-4.9,0.9-9-1-14.9
	c-2.9-9.1-6.7-16.9-13.7-18c-15.7-2.6-14.6-9.1-24.7-7.4L100,19.7l21.4-1.7c0,0,6.6-0.9,8.8-0.8c6.3,0.3,13.8,2.4,21.6,12.8
	c5.1,6.8,13.7,17.1,15.9,35.4c1,8.4,1.3,17.2,3.2,25.5c4,17.5-6.6,41.2-7,59.1"/>
<path fill="#936221" d="M118.7,25.8c-8.8,5.6-21.3,17.3-34.6,24.6s-20.6,9.5-40.7,16.8c0,0-1.1,50.5,3.8,63.3
	c2.8,7.3-0.2,28.3-0.2,28.3s-9.7-45.5-9.6-55.6c0.2-10.1-1.6-32,1.9-43.8c1.6-5.3,5.1-10,6.3-17.1c1.5-9.3,8.7-17.2,13.7-21.2
	C68.6,13.9,93.8,7,105.3,9.3s17.9,9.6,17.9,9.6S121,24.3,118.7,25.8z"/>
<circle opacity="7.000000e-002" fill="#231F20" cx="133.3" cy="104.3" r="2.9"/>
<circle opacity="7.000000e-002" fill="#231F20" cx="143.1" cy="106.5" r="2.4"/>
<circle opacity="7.000000e-002" fill="#231F20" cx="54.3" cy="104.9" r="2.9"/>
<circle opacity="7.000000e-002" fill="#231F20" cx="59.6" cy="109.3" r="1.6"/>
<circle opacity="7.000000e-002" fill="#231F20" cx="58" cy="98.9" r="1.6"/>
<circle opacity="7.000000e-002" fill="#231F20" cx="141.5" cy="95.8" r="1.6"/>
<path fill="#231F20" d="M188.1,220c0,0-16.3-23.2-31.6-27.9c-15.3-4.6-22.2-5-22.2-5l-2.3-0.3c-1.3,15.1-14.8,46.4-30.7,47.4h-4
	c-15.8-1-28.1-31.9-29.4-46.9l-2.6,0.4c0,0-14,1.9-21.8,4.3C28.3,196.8,11.8,220,11.8,220l32.7,29.7l6.2,83.1h49.2h0.3h49.2
	l6.2-83.2L188.1,220z"/>
<g>
</g>
<g>
</g>
<g>
</g>
<g>
</g>
<g>
</g>
<g>
</g>
</svg>
