<?xml version="1.0" encoding="utf-8"?>
<!-- Generator: Adobe Illustrator 18.1.1, SVG Export Plug-In . SVG Version: 6.00 Build 0)  -->
<svg version="1.1" id="Laag_1" xmlns="http://www.w3.org/2000/svg" xmlns:xlink="http://www.w3.org/1999/xlink" x="0px" y="0px"
	 width="200px" height="220px" viewBox="0 0 200 220" enable-background="new 0 0 200 220" xml:space="preserve">
<polygon fill="#FFDCCC" points="63.5,193.7 82.7,181.2 120.2,185 126.3,193.7 94.2,222.4 "/>
<path opacity="7.000000e-002" fill="#231F20" d="M86.9,190.7c0,0,7.4,15.3,19.2,18.6l11.3-22.7L109,185L86.9,190.7z"/>
<path fill="#1C75BC" d="M148.9,189.6l-30.8-4.6l-19.5,27.5L79.1,185l-31.5,5.7c-5.8,0-20.9,13.1-20.9,18.9l10.5,118.3
	c0,5.8,4.8,10.6,10.6,10.6h101.6c5.8,0,10.6-4.8,10.6-10.6l13.3-118.3C173.3,203.7,154.8,189.6,148.9,189.6z"/>
<polygon fill="#27AAE1" points="98.6,212.4 98.6,215.7 75.2,201.5 71.7,185 77.5,178.7 89.3,178.7 89.3,186 80.6,187.1 "/>
<polygon fill="#27AAE1" points="98.6,212.4 98.6,215.7 122,201.5 125.4,185 119.6,178.7 107.9,178.7 107.9,186 116.6,187.1 "/>
<path fill="#FFDCCC" d="M110.2,190.7c0,0-8.6,3.1-11.6,3.1c-3,0-11.6-3.1-11.6-3.1V162h23.3V190.7z"/>
<path fill="#FFC7B4" d="M37.2,80.6c2.2-1,5.1-1.6,6,0.9c0.2,0.5,0.5,1,0.1,2c-1.5,3.7-2.1,8.2-2.3,10s1,5.6,1.7,7.9
	c0.5,1.5,1,5.2,1,7.5c-2.7-1.1-4.7-3.8-5-7.1c-0.1-1.3,0.1-2.6,0.5-3.8c-1-1.1-1.8-2.4-2.6-3.8C33.5,88.4,33.8,82.3,37.2,80.6z"/>
<path fill="#FFC7B4" d="M160.9,81.2c-2.2-1-5.1-1.6-6,0.9c-0.2,0.5-0.5,1-0.1,2c1.5,3.7,2.1,8.2,2.3,10s-1,5.6-1.7,7.9
	c-0.5,1.5-1,5.2-1,7.5c2.7-1.1,4.7-3.8,5-7.1c0.1-1.3-0.1-2.6-0.5-3.8c1-1.1,1.8-2.4,2.6-3.8C164.7,89,164.4,82.9,160.9,81.2z"/>
<path fill="#FFDCCC" d="M157.6,96.6c0,44-26.2,79.8-58.4,79.8s-58.4-35.7-58.4-79.8S66.9,23,99.2,23S157.6,52.5,157.6,96.6z"/>
<g opacity="7.000000e-002">
	<defs>
		<path id="SVGID_1_" opacity="7.000000e-002" d="M156.4,80.2l-5.3-8.1c0,0,3.4,14.3,3.2,21.8c-0.2,7.5-1.5,27.4-5.4,36.9
			c-3.8,9.5-16.1,27.2-20.2,30.3c-4.1,3.1-13.5,9.5-21.7,10.4c-8.2,0.9-23.1,0.3-38.7-7.2c9,7.7,19.6,12.1,30.9,12.1
			c32.3,0,58.4-35.7,58.4-79.8C157.6,86.7,157.2,84.9,156.4,80.2z"/>
	</defs>
	<use xlink:href="#SVGID_1_"  overflow="visible" fill="#231F20"/>
	<clipPath id="SVGID_2_">
		<use xlink:href="#SVGID_1_"  overflow="visible"/>
	</clipPath>
	<path clip-path="url(#SVGID_2_)" fill="#231F20" d="M157.6,96.6c0,44-26.2,79.8-58.4,79.8s-58.4-35.7-58.4-79.8S66.9,23,99.2,23
		S157.6,52.5,157.6,96.6z"/>
</g>
<path fill="#1C75BC" d="M128.1,85.6c0,4.3-3.7,7.7-8.3,7.7c-4.6,0-8.3-3.5-8.3-7.7s3.7-6,8.3-6C124.4,79.6,128.1,81.3,128.1,85.6z"
	/>
<g>
	<path fill="#CAB5A3" d="M89.8,118.7c0,0,0.3,0,0.9-0.1c0.5,0,1.3-0.1,2.2-0.1c0.9,0,2,0,3.1,0.1c1.1,0,2.3,0.1,3.4,0.2
		c0.6,0.1,1.2,0.1,1.7,0.1c0.6,0,1.1,0.1,1.7,0.1c0.5,0.1,1,0,1.5,0.1c0.5,0,0.9,0,1.4,0c0.4,0,0.8,0,1.2,0c0.4,0,0.7,0,0.9-0.1
		c0.5-0.1,0.9-0.1,0.9-0.1s-0.2,0.2-0.6,0.6c-0.2,0.2-0.5,0.4-0.8,0.6c-0.3,0.2-0.7,0.5-1.2,0.6c-0.4,0.2-1,0.4-1.5,0.5
		c-0.5,0.1-1.1,0.3-1.7,0.3c-0.6,0.1-1.2,0.2-1.8,0.1c-0.6,0-1.3,0-1.9,0c-2.5-0.2-4.9-0.8-6.6-1.6c-0.9-0.4-1.6-0.8-2-1
		C90,118.9,89.8,118.7,89.8,118.7z"/>
</g>
<g>
	<path fill="#58595B" d="M114.4,143.6c0,0-0.1,0.1-0.2,0.3c-0.1,0.2-0.3,0.5-0.6,0.9c-0.3,0.4-0.7,0.8-1.3,1.2
		c-0.5,0.4-1.2,0.8-1.9,1.2c-0.7,0.4-1.6,0.7-2.5,1c-0.9,0.3-1.9,0.5-2.9,0.7c-2,0.4-4.2,0.5-6.4,0.4c-1.1-0.1-2.2-0.1-3.2-0.3
		c-1.1-0.1-2.1-0.3-3.1-0.6c-1-0.2-1.9-0.5-2.8-0.8c-0.9-0.3-1.7-0.7-2.4-1c-1.5-0.7-2.6-1.5-3.3-2.1c-0.4-0.3-0.6-0.6-0.8-0.8
		c-0.2-0.2-0.3-0.3-0.3-0.3s0.1,0.1,0.4,0.2c0.2,0.1,0.6,0.2,1,0.4c0.9,0.3,2.1,0.7,3.6,1c3,0.6,7.1,1.2,11.1,1.4
		c2,0.1,4.1,0.1,5.9,0c0.9-0.1,1.9-0.1,2.7-0.3c0.9-0.1,1.7-0.3,2.4-0.4c0.7-0.2,1.4-0.4,2-0.6c0.6-0.2,1.1-0.4,1.5-0.7
		c0.2-0.1,0.4-0.2,0.5-0.3c0.1-0.1,0.3-0.2,0.4-0.3C114.3,143.7,114.4,143.6,114.4,143.6z"/>
</g>
<path fill="#1C75BC" d="M85.8,85.6c0,4.3-3.7,7.7-8.3,7.7s-8.3-3.5-8.3-7.7s3.7-6,8.3-6S85.8,81.3,85.8,85.6z"/>
<g>
	<path fill="#726658" d="M131.9,77.4c0,0-0.4-0.1-1.1-0.3c-0.7-0.2-1.7-0.5-2.8-0.9c-1.1-0.4-2.3-0.9-3.6-1.3
		c-0.6-0.2-1.2-0.4-1.8-0.6c-0.3-0.1-0.6-0.1-0.8-0.2c-0.1,0-0.2,0-0.3,0l-0.4,0l-1.2,0c-0.4,0-0.8-0.1-1.2-0.1
		c-0.8-0.1-1.6-0.2-2.3-0.4c-1.5-0.3-2.8-0.7-4-1.1c-1.1-0.4-2.1-0.9-2.7-1.2c-0.3-0.2-0.6-0.3-0.8-0.4c-0.2-0.1-0.3-0.2-0.3-0.2
		s0.1,0,0.3-0.1c0.2-0.1,0.5-0.2,0.8-0.3c0.7-0.2,1.7-0.5,2.9-0.6c1.2-0.2,2.6-0.3,4-0.4c0.7,0,1.4-0.1,2.2-0.1c0.4,0,0.7,0,1.1,0
		l1.1,0l0.3,0l0.4,0c0.3,0,0.6,0.1,0.8,0.1c0.5,0.1,1,0.2,1.5,0.4c0.9,0.3,1.7,0.8,2.3,1.2c1.4,0.9,2.4,1.9,3.2,2.9
		c0.8,1,1.4,1.8,1.7,2.5C131.7,77,131.9,77.4,131.9,77.4z"/>
</g>
<g>
	<path fill="#726658" d="M65.6,75.5c0,0,0.2-0.4,0.7-1.1c0.5-0.6,1.2-1.5,2.2-2.4c1-0.9,2.3-1.8,3.8-2.6c0.8-0.4,1.6-0.7,2.6-1
		c0.5-0.1,1-0.2,1.6-0.3c0.3,0,0.6,0,0.9,0l0.5,0l0.3,0l1.2,0.1c0.4,0,0.8,0.1,1.2,0.1c0.8,0.1,1.6,0.1,2.4,0.2
		c1.6,0.2,3,0.4,4.3,0.7c1.3,0.3,2.4,0.6,3.1,0.8c0.4,0.1,0.7,0.3,0.9,0.3c0.2,0.1,0.3,0.1,0.3,0.1s-0.1,0.1-0.3,0.1
		c-0.2,0.1-0.5,0.2-0.9,0.4c-0.7,0.3-1.8,0.7-3,1c-1.3,0.3-2.8,0.7-4.4,0.8c-0.8,0.1-1.7,0.2-2.5,0.2c-0.4,0-0.9,0-1.3,0l-1.3-0.1
		l-0.5,0c-0.1,0-0.3,0-0.4,0c-0.3,0-0.6,0.1-0.9,0.1c-0.7,0.1-1.4,0.3-2.1,0.4c-1.5,0.4-2.9,0.7-4,1c-1.2,0.3-2.3,0.5-3.1,0.7
		C66.1,75.5,65.6,75.5,65.6,75.5z"/>
</g>
<ellipse fill="#FFFFFF" cx="115.7" cy="82.7" rx="1.7" ry="1.6"/>
<ellipse fill="#FFFFFF" cx="73.4" cy="82.7" rx="1.7" ry="1.6"/>
<path fill="#3C2415" d="M40.8,92.8c0,0,0.3-2.5,0.1-10.1c-0.2-9.7,2.1-21.7,6.6-30.9c6.1-12.3,6.8-17.5,14-23.6
	c7.6-6.4,10.9-0.6,23.7-11.4c5.4-4.5,9.5-3.2,14.8-5.9c9.4-4.9,16.2-4.9,14.9-3.3c-2.1,2.6-0.5,9.4,7.4,13c2.6,1.2,10-1.4,14.1,9.5
	c12.3,4.5,12.9,10.7,14.9,22.7c2.3,13.8,5.2,14.8,5.9,33.6c0,0-5.1,0-6.4-9.1c-1.3-8.7-9.3-14.3-10.3-22.5
	c-1.5-11.8-6.9-14.2-21.7-17.3c-10.9-2.3-15.3,4.7-33,0.3c-13.9-3.5-23.2,1.1-25.4,15.6c-1.2,8.2-10.4,12.6-13.1,24
	C45.5,85.3,40.8,92.8,40.8,92.8z"/>
<path opacity="0.11" fill="#3C2415" d="M40.8,92.8c0,0,0.3,0.4,0.1-7.2c-0.2-9.7,2.1-21.7,6.6-30.9c6.1-12.3,6.8-17.5,14-23.6
	c7.6-6.4,11-0.4,23.7-11.4c8.3-7.2,29.8-12,27.7-9.4c-2.1,2.6,1.4,9.6,9.4,13.2c2.6,1.2,10-1.4,14.1,9.5
	c12.3,4.5,12.9,10.7,14.9,22.7c2.3,13.8,5.2,11.9,5.9,30.7c0,0-4.7-3.1-6.3-8.2c-2.7-8.2-9.5-12.3-10.5-20.6
	c-1.5-11.8-6.9-14.2-21.7-17.3c-10.9-2.3-15.3,4.7-33,0.3c-13.9-3.5-23.2,1.1-25.4,15.6c-1.2,8.2-9.9,7.7-12.5,19.1
	C46.1,83.3,40.8,92.8,40.8,92.8z"/>
<path opacity="0.21" fill="#C2B59B" d="M69.2,28.8c0,0,9.6,0.5,14.4-2.7c4.9-3.1,4.3-7.3,12.1-9.1c8.2-1.9,9.8-6.3,18.3-6.4
	c0,0-7.5,2-12,8.4c-2.5,3.7-7.5,5-11.2,8.5c-5.5,5.3-11.8,5.2-15.1,4S69.2,28.8,69.2,28.8z"/>
<polygon fill="#27AAE1" points="94.2,212.4 94.2,338.5 103.5,338.5 103.5,209.6 "/>
<circle fill="#1C75BC" cx="99" cy="228.4" r="2.3"/>
<circle fill="#1C75BC" cx="99" cy="245.8" r="2.3"/>
<circle fill="#1C75BC" cx="99" cy="263.1" r="2.3"/>
<polygon fill="#27AAE1" points="126.3,214.8 145.5,214.8 145.5,232 138.5,237.3 126.3,233.7 "/>
<g>
</g>
<g>
</g>
<g>
</g>
<g>
</g>
<g>
</g>
<g>
</g>
</svg>
