<svg xmlns="http://www.w3.org/2000/svg" width="200" height="220" viewBox="0 0 200 220"><path fill="#2BB673" d="M148.7 325.6H51.3c-5.3 0-1.1-5.7-1.1-11.1l-8.6-113.6c0-5.3 4.4-9.7 9.7-9.7h97.4c5.3 0 9.7 4.4 9.7 9.7l-7.5 113.2c0 5.4 3.2 11.5-2.2 11.5z"/><path fill="#2BB673" d="M50.3 178.1l-7.6 3.2S26 180.2 19 184c-7 3.8-8.3 19.9-8.7 24-.5 4-.9 10.5-2.8 12.1s2.3 2.8 4.7 2.8c0 0 28.1.1 33.7-1.5l4.4-43.3z"/><path fill="#2BB673" d="M157.9 189.7s6.2-4.8 4.2-11.4c-2.1-6.6-10.2-14.3-21.4-11.7-11.2 2.6-36.9-1.6-36.9-1.6l-4.9 19.6v.2L95.2 165s-23.8 6.7-39 1c-11-4.1-18.3 5.7-20.4 12.4s3.7 11.7 3.7 11.7-4.2-.3-4.2 2.4c0 2.6.8 6.4 8.1 6.1 2-.1 7-1.5 13.1-.1 8.2 1.9 14 4.6 19.6 4.6 13.3 0 22.8-4.4 22.8-4.4v-.1c1.3 0 12 4.6 23.7 4.6 6.7 0 11.6 0 19.1-2.1 5.6-1.6 10.6-2.5 12.5-2.5 7.3.3 8.1-3.5 8.1-6.1.2-2.8-4.4-2.8-4.4-2.8z"/><path fill="#009444" d="M154.6 172.8c-2.8-3.5-10.9-3-17.4 0-6.4 3-26.5 5.8-26.5 5.8H87.1s-20.1-2.8-26.5-5.8c-6.4-3-14.5-3.5-17.4 0s2.8 7.4 6.9 7.8 9.9-.4 14.7 0c4.7.4 17.9 9.4 20.4 12.1 2.4 2.5 12.3 7.2 13.7 7.8v.1h.2v-.1c1.4-.6 11.3-5.3 13.7-7.8 2.5-2.7 15.7-11.7 20.4-12.1 4.7-.4 10.6.4 14.7 0s9.5-4.3 6.7-7.8z"/><path fill="#FFDCCC" d="M116.3 187s-8.9 2.8-17 2.8-17-2.8-17-2.8v-26.2h34V187z"/><path fill="#FFC7B4" d="M170.3 69.8c-2.9-1.1-6.9-1.6-7.8 1.8-.2.6-.5 1.4.1 2.6 2.3 4.7 3.6 10.5 4 12.9.4 2.4-.7 7.5-1.4 10.6-.5 2-.8 6.9-.5 10 3.4-1.7 5.8-5.4 5.8-9.8 0-1.8-.4-3.4-1.1-4.9 1.1-1.5 2.2-3.3 3-5.2 3.6-8.2 2.6-16.2-2.1-18zM29.5 68.9c2.9-1.1 6.9-1.6 7.8 1.8.2.6.5 1.4-.1 2.6-2.3 4.7-3.6 10.5-4 12.9-.4 2.4.7 7.5 1.4 10.6.5 2 .8 6.9.5 10-3.4-1.7-5.8-5.4-5.8-9.8 0-1.8.4-3.4 1.1-4.9-1.1-1.5-2.2-3.3-3-5.2-3.6-8.2-2.6-16.2 2.1-18z"/><path fill="#FFDCCC" d="M167.4 99.5c0-41.6-30.2-75.4-67.6-75.8h-.7-.1c-37.4.4-67.6 34.2-67.6 75.8s30.2 75.4 67.6 75.8H99.8c37.4-.5 67.6-34.2 67.6-75.8z"/><path opacity=".07" fill="#231F20" d="M167.4 97.2c-.3-13.4-4.5-26.5-9-36.9l-1 2s4.1 9.8 4.6 17.9c0 0 1.6 16.2 0 28.5-.9 7.4-5.3 24.9-16 38.4-10.9 13.8-24.6 20.4-39.6 24.1-4.9 1.2-24.9 1-45.7-9.8 10.9 8.7 24.1 13.9 38.3 14H99.8c37.4-.6 68.5-35.4 67.6-78.2z"/><path opacity=".09" fill="#231F20" d="M35.6 68.2s1.4-13.3 9.3-22.7c5.5-6.6 14-11.2 18.6-15.5 5.1-4.8 14.6-13.2 26.9-15.6S121.9 19 129.3 30c0 0 8.9 0 15.6 4.9 4.9 3.6 14 15.6 18.2 31.7l-4.7-1.8s-2.1-11-9.2-16.8c-6.5-5.3-13.9-6.4-23.2-7.4 0 0-10.4-6.9-18.1-7.5-11.6-.9-19.6 10.7-28.2 10.7-16.4 0-25.4-.9-35.5 13.8-3.6 5.2-8.6 10.6-8.6 10.6z"/><path fill="#45B6EF" d="M126 83.6c0 3.9-3.4 7.1-7.6 7.1-4.2 0-7.6-3.2-7.6-7.1s3.4-5.3 7.6-5.3c4.2 0 7.6 1.4 7.6 5.3z"/><path fill="#CAB5A3" d="M107.9 117l-.6.6c-.2.2-.4.4-.8.6-.3.2-.7.5-1.1.6-.4.2-.9.4-1.4.5-.5.1-1 .3-1.6.3-.6.1-1.1.1-1.7.1h-1.8c-2.4-.2-4.6-.8-6.2-1.5-.8-.4-1.5-.7-1.9-1-.4-.3-.7-.5-.7-.5s.3-.1.8-.1 1.2-.1 2.1-.1h2.9c1 0 2.1.1 3.2.2s2.2.2 3.2.2c.5.1 1 0 1.4.1H106.1c.3 0 .7 0 .9-.1.6.1.9.1.9.1z"/><path fill="#58595B" d="M114.9 142.4s-.3.4-1 1-1.7 1.4-2.9 2.2c-.7.4-1.3.8-2.1 1.2-.8.4-1.6.8-2.5 1.1-.4.2-.9.3-1.4.5-.5.1-.9.3-1.4.4-1 .2-2 .5-3 .6-1 .2-2 .2-3.1.3H96c-.5 0-1 0-1.5-.1s-1-.1-1.4-.2c-.5-.1-.9-.2-1.3-.3-.9-.2-1.6-.5-2.4-.8-.7-.3-1.3-.7-1.9-1-.5-.3-1-.6-1.3-.9-.7-.6-1.1-.9-1.1-.9s.5.1 1.3.4c.4.1.9.3 1.5.4.6.1 1.2.3 1.9.4.7.1 1.4.2 2.3.3.4 0 .8.1 1.2.1h1.3c.9 0 1.8-.1 2.7-.1.9-.1 1.8-.2 2.8-.3.9-.1 1.8-.3 2.8-.5l2.7-.6c.9-.2 1.7-.4 2.5-.7.8-.2 1.5-.5 2.2-.7.7-.3 1.3-.4 1.9-.6.6-.2 1.1-.4 1.5-.5.7-.5 1.2-.7 1.2-.7z"/><path fill="#45B6EF" d="M87.3 83.6c0 3.9-3.4 7.1-7.6 7.1s-7.6-3.2-7.6-7.1 3.4-5.3 7.6-5.3 7.6 1.4 7.6 5.3z"/><path fill="#3C2415" d="M72.1 14.8C83.7 10 109.4 1.6 129.3 30c14.4-9.3 28.9 5.3 30.5 16.6 1.2 8.3 5.1 15.5 4.4 31.3 0 0-2-10.4-5.9-13.1 0 0-7.2-18.7-15.7-22.1-8.5-3.4-10.4-3.3-16.7-2.1 0 0-9.4-10.5-21-10.5s-16.7 5.4-25.3 6.3c-11.4 1.2-31.5 10.2-34.3 19.2-2.3 7.5-11 16.5-11 16.5s1.2-10.3 3.4-22.2c1.8-10.1 6.6-12.6 12.4-15.1 0-.1 9.6-14.9 22-20z"/><path stroke="#000" stroke-width="2" stroke-miterlimit="10" d="M91.6 82.2c-1.6 7.5-7.6 19.8-9 21.2-1.4 1.4-9.4 4.4-15.7 4.9-10.1.8-14.1-.1-18.4-1.5-4.3-1.4-6.2-5.7-8.5-12.4-2.8-8.3-2.3-17.9-2.3-17.9.1-2.1 1.4-3.7 3-4.2 6.9-1.7 14.7-2.2 22.6-2.9 10.5-.9 23.5 1.5 25.1 2.1s4.9 3.2 3.2 10.7zm58 24.7c-4.3 1.4-8.2 2.3-18.4 1.5-6.3-.5-14.3-3.5-15.7-4.9-1.4-1.4-7.4-13.7-9-21.2-1.6-7.5 1.6-9.9 3.2-10.5 1.6-.6 14.5-3 25.1-2.1 7.9.7 15.7 1.2 22.6 2.9 1.6.4 3 2 3 4.2 0 0 .5 9.6-2.3 17.9-2.3 6.5-4.2 10.8-8.5 12.2zM162.8 84c.6-4.8 2.3-6.5 3.2-7.1.4-.2.6-.6.6-1.1v-4.7c0-.7-.6-1.3-1.3-1.3-.9 0-2.5-.1-4.8-.2-8.1-.3-22.7-3.4-32.3-3-9 .4-27.2 2.7-29.2 3h-.3c-1.9-.3-20.1-2.6-29.2-3-9.5-.4-24.2 2.7-32.3 3-1.4.1-2.5.1-3.4.1-1.5.1-2.7 1.3-2.7 2.8v3.3c0 .4.2.9.6 1.1.9.6 2.7 2.3 3.2 7.1.8 6.7 4.9 16.6 4.9 16.6s2.8 7.7 12 8.9 18.7-.4 23.7-1.2c4.4-.7 7.8-2.9 8.7-3.5.1-.1.3-.2.4-.4 4-6.1 9-22.3 9.8-25.2.8-2.8 4.4-2.7 4.4-2.7s3.6-.1 4.4 2.7c.8 2.8 5.8 19.1 9.8 25.2.1.1.2.3.4.4.9.6 4.3 2.8 8.7 3.5 5.1.8 14.6 2.4 23.7 1.2s12-8.9 12-8.9 4.2-9.9 5-16.6z"/><path fill="#594A42" d="M130.3 64.2s-.5 0-1.3-.1-1.9-.2-3.2-.4c-1.2-.2-2.6-.4-4.2-.7-.7-.1-1.5-.2-2.1-.3h-1.9l-1.3.1H115c-.9 0-1.7 0-2.5-.1-1.6-.1-3.1-.4-4.4-.6-1.3-.3-2.4-.6-3.1-.9-.8-.3-1.2-.5-1.2-.5s.1-.1.3-.1c.2-.1.5-.2.9-.4.7-.3 1.8-.7 3.1-1 1.3-.3 2.7-.6 4.3-.9.8-.1 1.6-.2 2.4-.4l2.4-.3h1.5c.6 0 1.1.1 1.5.2 1 .2 1.8.5 2.7.8 1.6.7 3 1.5 4.1 2.3 1.1.8 1.9 1.6 2.5 2.2.5.7.8 1.1.8 1.1z"/><path opacity=".07" stroke="#000" stroke-width="2" stroke-miterlimit="10" d="M93.3 83.8c-1.6 7.5-7.6 19.8-9 21.2-1.4 1.4-9.4 4.4-15.7 4.9-10.1.8-14.1-.1-18.4-1.5-4.3-1.4-6.2-5.7-8.5-12.4-2.8-8.3-2.3-17.9-2.3-17.9.1-2.1 1.4-3.7 3-4.2 6.9-1.7 14.7-2.2 22.6-2.9 10.5-.9 23.5 1.5 25.1 2.1 1.5.8 4.8 3.2 3.2 10.7zm57.9 24.7c-4.3 1.4-8.2 2.3-18.4 1.5-6.3-.5-14.3-3.5-15.7-4.9-1.4-1.4-7.4-13.7-9-21.2-1.6-7.5 1.6-9.9 3.2-10.5 1.6-.6 14.5-3 25.1-2.1 7.9.7 15.7 1.2 22.6 2.9 1.6.4 3 2 3 4.2 0 0 .5 9.6-2.3 17.9-2.3 6.5-4.2 10.8-8.5 12.2zm15.9-37.1c-.9 0-2.5-.1-4.8-.2-8.1-.3-22.7-3.4-32.3-3-9 .4-27.2 2.7-29.2 3h-.3c-1.9-.3-20.1-2.6-29.2-3-9.5-.4-24.2 2.7-32.3 3-1.4.1-2.5.1-3.4.1-1.5.1-2.7 1.3-2.7 2.8v3.3c0 .4.2.9.6 1.1.9.6 2.7 2.3 3.2 7.1.8 6.7 4.9 16.6 4.9 16.6s2.8 7.7 12 8.9 18.7-.4 23.7-1.2c4.4-.7 7.8-2.9 8.7-3.5.1-.1.3-.2.4-.4 4-6.1 9-22.3 9.8-25.2.8-2.8 4.4-2.7 4.4-2.7s3.6-.1 4.4 2.7c.8 2.8 5.8 19.1 9.8 25.2.1.1.2.3.4.4.9.6 4.3 2.8 8.7 3.5 5.1.8 14.6 2.4 23.7 1.2s11.5-7.5 12-8.9c1.8-5 1.4-10.7 2.8-17.1"/><path fill="#594A42" d="M68.7 64.2s.3-.4.8-1 1.4-1.4 2.5-2.2c1.1-.8 2.4-1.6 4.1-2.3.8-.3 1.7-.6 2.7-.8.5-.1 1-.2 1.5-.2H81.8c.9.1 1.6.2 2.4.3.8.1 1.6.2 2.4.4 1.6.3 3 .6 4.3.9 1.3.3 2.3.7 3.1 1 .4.1.7.3.9.4.2.1.3.1.3.1s-.4.2-1.2.5c-.8.3-1.8.6-3.1.9-1.3.3-2.8.5-4.4.6-.9.2-1.7.2-2.6.2h-1.3l-1.3-.1h-1.9l-2.1.3c-1.5.2-2.9.5-4.2.7-1.3.2-2.4.3-3.2.4-.8-.1-1.2-.1-1.2-.1z"/><ellipse fill="#FFF" cx="114" cy="81.6" rx="1.6" ry="1.4"/><ellipse fill="#FFF" cx="75.3" cy="81.6" rx="1.6" ry="1.4"/><path opacity=".2" fill="#C2B59B" d="M126.6 37.6s-3.7-12-20.1-18.8C90.2 12.1 79.6 16 70.6 18c-9.9 2.1-20.5 16.7-20.5 16.7s8.9-9.6 16.4-10.9c8.8-1.6 10.1 2.9 24.9-.4 12.4-2.8 22.3 3.4 27 6.2 4.6 2.8 8.2 8 8.2 8zM129.3 34.1s10.4-4.4 18.2.9c9.3 6.3 9.3 6.9 9.8 12.4.6 6.8 4.9 16.2 4.9 16.2s-7.4-9.3-8.4-15.6c-.6-3.8-1.3-6.5-6.3-9.9-4-2.7-8.3-4-11.3-4.5s-6.9.5-6.9.5z"/><path fill="#2BB673" d="M150.9 180.6l7.6 3.2s16.7-1.1 23.7 2.7c7 3.8 8.3 19.9 8.7 24s.9 10.5 2.8 12.1c1.9 1.6-2.3 2.8-4.7 2.8 0 0-28.1.1-33.7-1.5l-4.4-43.3z"/><path fill="#009444" d="M162 184s-11.2 5.3-21.3 6.9c-10.1 1.6-14.7 7.6-14.7 7.6s6.9-2.8 15.8-3.6c9-.8 16.1-5.2 16.1-5.2s3-1.8 4.1-5.7zM35.4 182.6s4 4.2 11.9 4.2c6.9 0 17.8 7.7 17.8 7.7s-11.3-2.5-18.2-3.3c-6.9-.8-8-1.3-8-1.3s-3.5-4.1-3.5-7.3z"/><path fill="#FFF" d="M87.7 199.4c-.1-1.1-1.4-1.9-3-1.9s-2.9.8-3 1.9v36.5c.1 1.1 1.4 1.9 3 1.9s2.9-.8 3-1.9v-36.5zM115.4 199.9c-.1-1.4-1.4-2.4-3-2.4s-2.9 1.1-3 2.4v46.6c.1 1.4 1.4 2.4 3 2.4s2.9-1.1 3-2.4v-46.6z"/></svg>