<svg xmlns="http://www.w3.org/2000/svg" xmlns:xlink="http://www.w3.org/1999/xlink" width="200" height="220" viewBox="0 0 200 220"><path fill="#936221" d="M78.7 113.6c4.7 12.7 15.6 32.6 13.1 45-2.5 12.4-2.1 31.5-2.1 31.5-1 .4-16.7 2.7-28.6 4.8-9 1.6-17.8 8.2-17.8 8.2s.9-17.5-.5-23.8c-2.3-10.5 1-14.8-1.6-23.6-3.1-10.3-6.7-16.3-7.3-22-1.3-10.9 3.8-28 3.4-41.2-.3-11.2 16.3-6.2 16.3-6.2l25.1 27.3zM122 119.8c-4.6 12.7-14.1 32.4-12.7 45 1.4 12.5 1 25.9 1 25.9 3.1.8 31.6 2.6 39.7 6.1 7.2 3.1 9.3 10.9 9.3 10.9s-3.8-15.8-2.5-22.1c2.3-10.5-1-14.8 1.6-23.6 3-10.3 6.2-10.4 6.8-16 1.2-10.9-1-33.3-5.2-43.7-4.2-10.5-13.7-9.6-13.7-9.6L122 119.8z"/><path fill="#FFDCCC" d="M67.9 187.4l29.7-4.9 34.4 4.4 3 18-24.7 41.9-31-3.5L63.8 192"/><path opacity=".07" fill="#231F20" d="M89.7 192.1s4 24.3 24.6 34.8c5.3 2.7 19.1-14.2 19.1-14.2l2.9-25.3-34.6-4.8-12 9.5z"/><path fill="#FFC7B4" d="M164.1 74c-2.2-1.1-5.3-1.7-6.2.9-.2.5-.5 1.1-.1 2 1.5 3.8 2.2 8.5 2.4 10.4s-1 5.8-1.7 8.2c-.5 1.5-1 5.3-1 7.8 2.8-1.1 4.9-3.9 5.2-7.3.1-1.4-.1-2.7-.5-3.9 1-1.1 1.9-2.4 2.7-3.9 3-6.2 2.8-12.5-.8-14.2z"/><path fill="#FFDCCC" d="M160.6 89.9c0 45.7-27.1 82.7-60.6 82.7s-60.6-37-60.6-82.7S66.5 13.5 100 13.5s60.6 30.7 60.6 76.4z"/><path fill="#726658" d="M76.5 71.7l-6-2.5 4 4-5.2-.9 4.1 2.5-4.6.8 4.4.6M123.8 72.7l5.9-2.5-3.9 4 5.2-.9-4.2 2.5 4.6.8-4.4.6"/><path fill="#FFDCCC" d="M110.3 195.2s-3.1 4.1-10.3 4.1c-7.9 0-10.3-4.1-10.3-4.1v-26.4h20.7v26.4z"/><g opacity=".07"><defs><path id="a" opacity=".07" d="M159.3 72.9l-5.5-8.4s3.5 14.8 3.3 22.6c-.2 7.8-1.6 28.4-5.6 38.3-4 9.9-16.7 28.2-21 31.4-4.2 3.2-14 9.9-22.5 10.8-8.5.9-24 .3-40.1-7.4 9.3 8 20.3 12.6 32.1 12.6 33.5 0 60.6-37 60.6-82.7 0-10.5-.5-12.3-1.3-17.2z"/></defs><use xlink:href="#a" overflow="visible" fill="#231F20"/><clipPath id="b"><use xlink:href="#a" overflow="visible"/></clipPath><path clip-path="url(#b)" fill="#231F20" d="M160.6 89.9c0 45.7-27.1 82.7-60.6 82.7s-60.6-37-60.6-82.7S66.5 13.5 100 13.5s60.6 30.7 60.6 76.4z"/></g><path fill="#54600A" d="M128.5 77.8c0 4.7-4.1 8.5-9.1 8.5s-9.1-3.8-9.1-8.5 4.1-6.5 9.1-6.5c5-.1 9.1 1.8 9.1 6.5z"/><path fill="#CAB5A3" d="M91.4 109.7s.3-.1.7-.2c.5-.1 1.1-.2 1.9-.3.8-.1 1.7-.1 2.6-.2.9 0 1.9-.1 2.9-.1s1.9 0 2.8-.1c.5 0 .9-.1 1.3-.1s.8-.1 1.1-.1c.4 0 .7-.1 1-.1.3 0 .6-.1.8-.2.4-.1.7-.2.7-.2s-.1.2-.4.7c-.1.2-.3.5-.6.7-.3.2-.5.5-.9.8-.4.2-.8.5-1.2.7-.4.2-.9.4-1.4.5-.5.1-1 .3-1.6.3-.5.1-1.1.1-1.6.1-2.2 0-4.3-.4-5.8-1-.7-.3-1.4-.6-1.8-.9-.3-.1-.5-.3-.5-.3z"/><path fill="#AA3A00" d="M116.4 137.4s-.1.1-.2.4c-.1.2-.3.6-.7 1-.3.4-.8.9-1.3 1.4-.6.5-1.2 1-2 1.5s-1.7.9-2.6 1.3c-1 .4-2 .8-3.1 1.1-2.2.6-4.5 1-6.9 1.1-1.2 0-2.4.1-3.5 0-1.2-.1-2.3-.2-3.4-.4-2.2-.4-4.2-1.1-5.9-1.9-.8-.4-1.5-.8-2.2-1.3-.6-.4-1.1-.9-1.5-1.3-.4-.4-.6-.7-.8-1l-.2-.4s.1.1.4.1c.2.1.6.2 1.1.4 1 .2 2.3.5 3.9.6.8.1 1.7.1 2.6.2.9 0 1.9.1 2.9.1 2 0 4.1 0 6.3-.1 1.1 0 2.1-.1 3.2-.2 1-.1 2.1-.2 3.1-.3 2-.2 3.8-.4 5.4-.8.8-.2 1.5-.3 2.2-.5.6-.2 1.2-.3 1.7-.5.2-.1.4-.2.6-.2.2-.1.3-.2.5-.2.3-.1.4-.1.4-.1z"/><path fill="#54600A" d="M89.7 77.3c0 4.7-4.1 8.5-9.1 8.5s-9.1-3.8-9.1-8.5 4.1-6.5 9.1-6.5 9.1 1.8 9.1 6.5z"/><path fill="#726658" d="M133.9 70s-.4-.1-1.1-.4c-.7-.3-1.7-.6-2.8-1.1-1.1-.5-2.4-1-3.7-1.5-.6-.3-1.3-.5-1.9-.6-.3-.1-.6-.1-.9-.2h-.9c-.8 0-1.7 0-2.5-.1l-2.4-.3c-1.5-.3-2.9-.6-4.1-1-1.2-.4-2.2-.8-2.8-1-.7-.3-1.1-.5-1.1-.5s.4-.1 1.1-.3c.7-.1 1.8-.3 3-.4 1.2-.1 2.7-.2 4.1-.2h5.3c.3 0 .5.1.8.1.5.1 1 .2 1.4.4.9.3 1.7.7 2.4 1.2 1.4.9 2.5 1.9 3.4 2.8.9.9 1.5 1.8 1.9 2.4.6.3.8.7.8.7zM65.1 68.1s.3-.4.8-1 1.4-1.4 2.4-2.3c1.1-.9 2.4-1.8 4-2.5.8-.4 1.7-.7 2.6-1l1.5-.3H77.9c.9.1 1.7.1 2.6.2.8.1 1.7.1 2.5.2 1.6.1 3.2.3 4.5.5 1.3.2 2.4.5 3.2.7.8.2 1.2.4 1.2.4s-.4.2-1.2.4c-.8.2-1.9.5-3.2.8-1.3.3-2.9.5-4.5.7-.6.1-1.5.1-2.4.1-.9 0-1.8 0-2.7-.1h-1c-.3 0-.7.1-1 .1-.7.1-1.5.3-2.2.5-1.5.4-2.9.9-4.2 1.3-1.3.4-2.3.7-3.1.9-.8.3-1.3.4-1.3.4z"/><ellipse fill="#FFF" cx="114.9" cy="74.6" rx="1.9" ry="1.7"/><ellipse fill="#FFF" cx="76.2" cy="74.1" rx="1.9" ry="1.7"/><path opacity=".17" fill="#231F20" d="M167.8 68.2c-2.2-18.3-10.9-28.7-15.9-35.4-7.8-10.4-15.4-12.5-21.6-12.8-1.7-.1-6.1.4-8 .7-2.2-2-8.1-6.9-17-8.6C93.8 9.8 68.6 16.7 59.5 24c-5 4-12.2 11.9-13.7 21.2-1.3 7.1-4.8 11.8-6.4 17.1l4 7.7c20.1-7.3 27.3-9.5 40.7-16.8 9-4.9 17.5-11.8 24.9-17.5 10.1-1.7 3.8 3.9 19.5 6.5 7 1.2 10.8 9 13.7 18 1.9 5.9-.9 10.3 1 14.9 4.5 11.2 9.7 37.7 9.7 46.4L171 93.9c-2-8.5-2.2-17.2-3.2-25.7z"/><path fill="#936221" d="M152 132.5c2.6-8.4-.9-22.3-.9-36.7 0-8.6-7-18.8-7.9-23.5-.9-4.9.9-9-1-14.9-2.9-9.1-6.7-16.9-13.7-18-15.7-2.6-14.6-9.1-24.7-7.4L100 19.7l21.4-1.7s6.6-.9 8.8-.8c6.3.3 13.8 2.4 21.6 12.8 5.1 6.8 13.7 17.1 15.9 35.4 1 8.4 1.3 17.2 3.2 25.5 4 17.5-6.6 41.2-7 59.1"/><path fill="#936221" d="M118.7 25.8c-8.8 5.6-21.3 17.3-34.6 24.6s-20.6 9.5-40.7 16.8c0 0-1.1 50.5 3.8 63.3 2.8 7.3-.2 28.3-.2 28.3s-9.7-45.5-9.6-55.6c.2-10.1-1.6-32 1.9-43.8 1.6-5.3 5.1-10 6.3-17.1 1.5-9.3 8.7-17.2 13.7-21.2 9.3-7.2 34.5-14.1 46-11.8s17.9 9.6 17.9 9.6-2.2 5.4-4.5 6.9z"/><circle opacity=".07" fill="#231F20" cx="133.3" cy="104.3" r="2.9"/><circle opacity=".07" fill="#231F20" cx="143.1" cy="106.5" r="2.4"/><circle opacity=".07" fill="#231F20" cx="54.3" cy="104.9" r="2.9"/><circle opacity=".07" fill="#231F20" cx="59.6" cy="109.3" r="1.6"/><circle opacity=".07" fill="#231F20" cx="58" cy="98.9" r="1.6"/><circle opacity=".07" fill="#231F20" cx="141.5" cy="95.8" r="1.6"/><path fill="#231F20" d="M188.1 220s-16.3-23.2-31.6-27.9c-15.3-4.6-22.2-5-22.2-5l-2.3-.3c-1.3 15.1-14.8 46.4-30.7 47.4h-4c-15.8-1-28.1-31.9-29.4-46.9l-2.6.4s-14 1.9-21.8 4.3c-15.2 4.8-31.7 28-31.7 28l32.7 29.7 6.2 83.1h98.7l6.2-83.2 32.5-29.6z"/></svg>