<svg xmlns="http://www.w3.org/2000/svg" xmlns:xlink="http://www.w3.org/1999/xlink" width="200" height="220" viewBox="0 0 200 220"><path fill="#FFDCCC" d="M63.5 193.7l19.2-12.5 37.5 3.8 6.1 8.7-32.1 28.7"/><path opacity=".07" fill="#231F20" d="M86.9 190.7s7.4 15.3 19.2 18.6l11.3-22.7-8.4-1.6-22.1 5.7z"/><path fill="#1C75BC" d="M148.9 189.6l-30.8-4.6-19.5 27.5L79.1 185l-31.5 5.7c-5.8 0-20.9 13.1-20.9 18.9l10.5 118.3c0 5.8 4.8 10.6 10.6 10.6h101.6c5.8 0 10.6-4.8 10.6-10.6l13.3-118.3c0-5.9-18.5-20-24.4-20z"/><path fill="#27AAE1" d="M98.6 212.4v3.3l-23.4-14.2-3.5-16.5 5.8-6.3h11.8v7.3l-8.7 1.1M98.6 212.4v3.3l23.4-14.2 3.4-16.5-5.8-6.3h-11.7v7.3l8.7 1.1"/><path fill="#FFDCCC" d="M110.2 190.7s-8.6 3.1-11.6 3.1-11.6-3.1-11.6-3.1V162h23.3v28.7z"/><path fill="#FFC7B4" d="M37.2 80.6c2.2-1 5.1-1.6 6 .9.2.5.5 1 .1 2-1.5 3.7-2.1 8.2-2.3 10s1 5.6 1.7 7.9c.5 1.5 1 5.2 1 7.5-2.7-1.1-4.7-3.8-5-7.1-.1-1.3.1-2.6.5-3.8-1-1.1-1.8-2.4-2.6-3.8-3.1-5.8-2.8-11.9.6-13.6zM160.9 81.2c-2.2-1-5.1-1.6-6 .9-.2.5-.5 1-.1 2 1.5 3.7 2.1 8.2 2.3 10s-1 5.6-1.7 7.9c-.5 1.5-1 5.2-1 7.5 2.7-1.1 4.7-3.8 5-7.1.1-1.3-.1-2.6-.5-3.8 1-1.1 1.8-2.4 2.6-3.8 3.2-5.8 2.9-11.9-.6-13.6z"/><path fill="#FFDCCC" d="M157.6 96.6c0 44-26.2 79.8-58.4 79.8s-58.4-35.7-58.4-79.8S66.9 23 99.2 23s58.4 29.5 58.4 73.6z"/><g opacity=".07"><defs><path id="a" opacity=".07" d="M156.4 80.2l-5.3-8.1s3.4 14.3 3.2 21.8c-.2 7.5-1.5 27.4-5.4 36.9-3.8 9.5-16.1 27.2-20.2 30.3-4.1 3.1-13.5 9.5-21.7 10.4-8.2.9-23.1.3-38.7-7.2 9 7.7 19.6 12.1 30.9 12.1 32.3 0 58.4-35.7 58.4-79.8 0-9.9-.4-11.7-1.2-16.4z"/></defs><use xlink:href="#a" overflow="visible" fill="#231F20"/><clipPath id="b"><use xlink:href="#a" overflow="visible"/></clipPath><path clip-path="url(#b)" fill="#231F20" d="M157.6 96.6c0 44-26.2 79.8-58.4 79.8s-58.4-35.7-58.4-79.8S66.9 23 99.2 23s58.4 29.5 58.4 73.6z"/></g><path fill="#1C75BC" d="M128.1 85.6c0 4.3-3.7 7.7-8.3 7.7-4.6 0-8.3-3.5-8.3-7.7s3.7-6 8.3-6c4.6 0 8.3 1.7 8.3 6z"/><path fill="#CAB5A3" d="M89.8 118.7s.3 0 .9-.1c.5 0 1.3-.1 2.2-.1.9 0 2 0 3.1.1 1.1 0 2.3.1 3.4.2.6.1 1.2.1 1.7.1.6 0 1.1.1 1.7.1.5.1 1 0 1.5.1H106.9c.4 0 .7 0 .9-.1.5-.1.9-.1.9-.1l-.6.6c-.2.2-.5.4-.8.6-.3.2-.7.5-1.2.6-.4.2-1 .4-1.5.5-.5.1-1.1.3-1.7.3-.6.1-1.2.2-1.8.1h-1.9c-2.5-.2-4.9-.8-6.6-1.6-.9-.4-1.6-.8-2-1-.6-.1-.8-.3-.8-.3z"/><path fill="#58595B" d="M114.4 143.6s-.1.1-.2.3c-.1.2-.3.5-.6.9s-.7.8-1.3 1.2c-.5.4-1.2.8-1.9 1.2-.7.4-1.6.7-2.5 1-.9.3-1.9.5-2.9.7-2 .4-4.2.5-6.4.4-1.1-.1-2.2-.1-3.2-.3-1.1-.1-2.1-.3-3.1-.6-1-.2-1.9-.5-2.8-.8-.9-.3-1.7-.7-2.4-1-1.5-.7-2.6-1.5-3.3-2.1-.4-.3-.6-.6-.8-.8l-.3-.3s.1.1.4.2c.2.1.6.2 1 .4.9.3 2.1.7 3.6 1 3 .6 7.1 1.2 11.1 1.4 2 .1 4.1.1 5.9 0 .9-.1 1.9-.1 2.7-.3.9-.1 1.7-.3 2.4-.4.7-.2 1.4-.4 2-.6.6-.2 1.1-.4 1.5-.7.2-.1.4-.2.5-.3.1-.1.3-.2.4-.3l.2-.2z"/><path fill="#1C75BC" d="M85.8 85.6c0 4.3-3.7 7.7-8.3 7.7s-8.3-3.5-8.3-7.7 3.7-6 8.3-6 8.3 1.7 8.3 6z"/><path fill="#726658" d="M131.9 77.4s-.4-.1-1.1-.3c-.7-.2-1.7-.5-2.8-.9-1.1-.4-2.3-.9-3.6-1.3l-1.8-.6c-.3-.1-.6-.1-.8-.2h-1.9c-.4 0-.8-.1-1.2-.1-.8-.1-1.6-.2-2.3-.4-1.5-.3-2.8-.7-4-1.1-1.1-.4-2.1-.9-2.7-1.2-.3-.2-.6-.3-.8-.4-.2-.1-.3-.2-.3-.2s.1 0 .3-.1c.2-.1.5-.2.8-.3.7-.2 1.7-.5 2.9-.6 1.2-.2 2.6-.3 4-.4.7 0 1.4-.1 2.2-.1h2.9c.3 0 .6.1.8.1.5.1 1 .2 1.5.4.9.3 1.7.8 2.3 1.2 1.4.9 2.4 1.9 3.2 2.9.8 1 1.4 1.8 1.7 2.5.5.7.7 1.1.7 1.1zM65.6 75.5s.2-.4.7-1.1c.5-.6 1.2-1.5 2.2-2.4 1-.9 2.3-1.8 3.8-2.6.8-.4 1.6-.7 2.6-1 .5-.1 1-.2 1.6-.3h1.7l1.2.1c.4 0 .8.1 1.2.1.8.1 1.6.1 2.4.2 1.6.2 3 .4 4.3.7 1.3.3 2.4.6 3.1.8.4.1.7.3.9.3.2.1.3.1.3.1s-.1.1-.3.1c-.2.1-.5.2-.9.4-.7.3-1.8.7-3 1-1.3.3-2.8.7-4.4.8-.8.1-1.7.2-2.5.2h-1.3l-1.3-.1H77c-.3 0-.6.1-.9.1-.7.1-1.4.3-2.1.4-1.5.4-2.9.7-4 1-1.2.3-2.3.5-3.1.7-.8.5-1.3.5-1.3.5z"/><ellipse fill="#FFF" cx="115.7" cy="82.7" rx="1.7" ry="1.6"/><ellipse fill="#FFF" cx="73.4" cy="82.7" rx="1.7" ry="1.6"/><path fill="#3C2415" d="M40.8 92.8s.3-2.5.1-10.1C40.7 73 43 61 47.5 51.8c6.1-12.3 6.8-17.5 14-23.6 7.6-6.4 10.9-.6 23.7-11.4 5.4-4.5 9.5-3.2 14.8-5.9 9.4-4.9 16.2-4.9 14.9-3.3-2.1 2.6-.5 9.4 7.4 13 2.6 1.2 10-1.4 14.1 9.5 12.3 4.5 12.9 10.7 14.9 22.7 2.3 13.8 5.2 14.8 5.9 33.6 0 0-5.1 0-6.4-9.1-1.3-8.7-9.3-14.3-10.3-22.5-1.5-11.8-6.9-14.2-21.7-17.3-10.9-2.3-15.3 4.7-33 .3-13.9-3.5-23.2 1.1-25.4 15.6-1.2 8.2-10.4 12.6-13.1 24-1.8 7.9-6.5 15.4-6.5 15.4z"/><path opacity=".11" fill="#3C2415" d="M40.8 92.8s.3.4.1-7.2c-.2-9.7 2.1-21.7 6.6-30.9 6.1-12.3 6.8-17.5 14-23.6 7.6-6.4 11-.4 23.7-11.4 8.3-7.2 29.8-12 27.7-9.4-2.1 2.6 1.4 9.6 9.4 13.2 2.6 1.2 10-1.4 14.1 9.5 12.3 4.5 12.9 10.7 14.9 22.7 2.3 13.8 5.2 11.9 5.9 30.7 0 0-4.7-3.1-6.3-8.2-2.7-8.2-9.5-12.3-10.5-20.6-1.5-11.8-6.9-14.2-21.7-17.3-10.9-2.3-15.3 4.7-33 .3-13.9-3.5-23.2 1.1-25.4 15.6-1.2 8.2-9.9 7.7-12.5 19.1-1.7 8-7 17.5-7 17.5z"/><path opacity=".21" fill="#C2B59B" d="M69.2 28.8s9.6.5 14.4-2.7c4.9-3.1 4.3-7.3 12.1-9.1 8.2-1.9 9.8-6.3 18.3-6.4 0 0-7.5 2-12 8.4-2.5 3.7-7.5 5-11.2 8.5-5.5 5.3-11.8 5.2-15.1 4s-6.5-2.7-6.5-2.7z"/><path fill="#27AAE1" d="M94.2 212.4v126.1h9.3V209.6"/><circle fill="#1C75BC" cx="99" cy="228.4" r="2.3"/><circle fill="#1C75BC" cx="99" cy="245.8" r="2.3"/><circle fill="#1C75BC" cx="99" cy="263.1" r="2.3"/><path fill="#27AAE1" d="M126.3 214.8h19.2V232l-7 5.3-12.2-3.6"/></svg>